<svg xmlns="http://www.w3.org/2000/svg" width="800" height="450" viewBox="0 0 800 450" role="img" aria-label="FOREX & CURRENCY illustration">
 <defs><linearGradient id="bg" x1="0" y1="0" x2="1" y2="1"><stop stop-color="#0c3563"/><stop offset="1" stop-color="#061627"/></linearGradient><radialGradient id="glow"><stop stop-color="#3a95ff" stop-opacity=".24"/><stop offset="1" stop-color="#3a95ff" stop-opacity="0"/></radialGradient></defs>
 <rect width="800" height="450" fill="url(#bg)"/><circle cx="590" cy="170" r="240" fill="url(#glow)"/>
 <g opacity=".18" stroke="#3a95ff" stroke-width="2"><path d="M0 88h800M0 172h800M0 256h800M0 340h800M90 0v450M230 0v450M370 0v450M510 0v450M650 0v450"/></g>
 <g opacity=".92" transform="translate(0 -30)"><circle cx="290" cy="240" r="110" fill="none" stroke="#85c4ff" stroke-width="14"/><circle cx="500" cy="240" r="108" fill="none" stroke="#2588ea" stroke-width="14"/><text x="290" y="268" font-size="92" font-weight="800" fill="#cae5ff" text-anchor="middle">$</text><text x="500" y="264" font-size="77" font-weight="800" fill="#cae5ff" text-anchor="middle">€</text></g>
 <rect x="0" y="367" width="800" height="83" fill="#03101e" fill-opacity=".76"/>
 <rect x="25" y="385" width="6" height="42" rx="3" fill="#3a95ff"/>
 <text x="48" y="402" fill="#fff" font-family="Arial, sans-serif" font-size="24" font-weight="800" letter-spacing="1.7">FOREX & CURRENCY</text>
 <text x="48" y="427" fill="#c5d5e9" font-family="Arial, sans-serif" font-size="15">FX rates, central banks and exchange</text>
 <text x="765" y="421" fill="#e5f1fd" text-anchor="end" font-family="Arial, sans-serif" font-weight="900" font-size="20">HAWAL</text>
 <title>FOREX & CURRENCY — illustrative category cover, not an event photograph</title>
 </svg>